<svg xmlns="http://www.w3.org/2000/svg"  viewBox="0 0 24 24" width="480px" height="480px"><path d="M6.179,22.685	C5.464,22.324,5,21.629,5,20.631v-3.372l-0.328-0.588C4.252,15.829,4,14.985,4,13.999l-0.001-3.927C3.388,9.518,3,8.833,3,7.999	c0-0.82,0.168-1.827,0.811-2.645c0.332-0.424,0.76-0.759,1.281-0.989C6.284,2.458,8.376,0.999,11,0.999c4.023,0,6,3.192,6,6h1	c0.315,0,0.567,0.124,0.743,0.256c0.167,0.128,0.285,0.279,0.365,0.404c0.193,0.296,0.324,0.676,0.42,1.032	c0.101,0.381,0.187,0.829,0.256,1.32c0.137,0.981,0.217,2.191,0.217,3.488c0,1.299-0.08,2.508-0.217,3.489	c-0.069,0.491-0.155,0.939-0.256,1.32c-0.096,0.359-0.227,0.735-0.42,1.032c-0.08,0.125-0.199,0.276-0.365,0.404	c-0.176,0.132-0.428,0.255-0.743,0.255h-1.053c-0.065,0.565-0.208,1.132-0.495,1.623C15.929,22.516,15.032,23,13.819,23	c-0.375,0-1.047-0.013-1.64-0.315C11.464,22.324,11,21.629,11,20.631v-0.632h-0.061l-0.04,0.336	c-0.08,0.451-0.216,0.893-0.447,1.287C9.929,22.516,9.032,23,7.819,23C7.444,23,6.772,22.986,6.179,22.685z M14,7.001	c0-1.765-3.893-2-6-2c-2.405,0-3,1.588-3,3c0,1.883,3.617,3,6,3C13.325,11.001,14,9.105,14,7.001z"/></svg>